<svg viewBox="0 0 425 200" xmlns="http://www.w3.org/2000/svg">
  <defs>
    <style>.cls-1{fill:#573ef6;stroke-width:0px;}</style>
  </defs>
  <path class="cls-1" d="M 81.835 145.506 C 78.664 148.518 73.636 147.728 70.026 145.34 C 67.449 143.704 65.22 141.274 63.469 138.706 C 59.518 132.859 57.268 126.097 54.738 119.542 C 53.618 116.576 52.466 113.625 51.244 110.7 C 49.975 107.644 48.61 104.617 47.299 101.57 C 44.407 94.936 40.749 85.568 47.232 80.133 C 53.948 74.822 65.688 76.365 71.629 82.4 C 76.61 87.419 77.732 94.439 78.804 101.287 C 79.378 105.063 79.913 108.851 80.601 112.611 C 81.24 116.154 82 119.659 82.784 123.18 C 84.135 129.991 87.181 140.037 81.855 145.484 L 81.833 145.506 L 81.835 145.506 Z M 117.953 148.244 C 115.169 148.497 111.937 146.87 109.514 145.105 C 107.15 143.409 104.958 141.362 102.859 139.321 C 96.578 133.113 90.188 126.565 87.653 118.04 C 85.765 111.894 85.519 104.878 85.634 98.274 C 85.727 90.022 87.751 80.307 97.012 78.27 C 101.209 77.337 105.861 78.51 109.056 81.393 C 115.053 86.951 114.784 95.627 116.091 103.345 C 117.138 110.814 119.604 117.962 121.799 125.151 C 123.465 130.943 125.422 137.815 123.509 143.539 C 122.69 146.026 120.607 148.094 117.984 148.24 L 117.954 148.24 L 117.953 148.244 Z M 148.548 99.84 C 145.281 106.298 142.922 113.125 140.555 119.948 C 139.584 122.486 138.654 124.709 137.136 126.673 C 133.987 130.762 130.383 128.951 128.545 124.709 C 125.972 118.889 126.571 111.827 126.722 105.544 C 126.799 102.747 126.781 99.938 126.765 97.138 C 126.654 90.365 127.041 83.104 133.811 79.956 C 139.377 77.289 149.151 77.939 152.087 83.975 C 154.275 89.069 150.75 94.941 148.568 99.801 L 148.551 99.846 L 148.548 99.84 Z" style=""/>
  <path class="cls-1" d="M 98.199 41.654 C 132.434 41.654 160.185 69.402 160.185 103.639 C 160.185 137.875 132.435 165.625 98.199 165.625 C 63.964 165.625 36.213 137.875 36.213 103.639 C 36.213 69.402 63.964 41.654 98.199 41.654 M 98.199 38.637 C 89.425 38.637 80.911 40.356 72.896 43.747 C 65.157 47.02 58.205 51.709 52.236 57.674 C 46.267 63.644 41.582 70.594 38.308 78.335 C 34.917 86.349 33.199 94.862 33.199 103.637 C 33.199 112.413 34.919 120.925 38.308 128.94 C 41.582 136.68 46.27 143.634 52.236 149.6 C 58.205 155.569 65.157 160.254 72.896 163.528 C 80.911 166.92 89.425 168.637 98.199 168.637 C 106.972 168.637 115.487 166.918 123.502 163.528 C 131.241 160.254 138.193 155.566 144.161 149.6 C 150.129 143.63 154.816 136.68 158.09 128.94 C 161.481 120.925 163.199 112.413 163.199 103.637 C 163.199 94.862 161.479 86.349 158.09 78.335 C 154.816 70.594 150.128 63.642 144.161 57.674 C 138.192 51.705 131.241 47.02 123.502 43.747 C 115.487 40.355 106.972 38.637 98.199 38.637 Z" style=""/>
  <text style="fill: rgb(241, 241, 241); font-family: 'Apple Symbols'; font-size: 68px; white-space: pre;" x="195.144" y="121.173">Wompo</text>
</svg>